<?xml version="1.0" encoding="UTF-8"?>
<svg id="Layer_2" data-name="Layer 2" xmlns="http://www.w3.org/2000/svg" viewBox="0 0 2375.65091 903.77537">
  <defs>
    <style>
      .cls-1 {
        fill: #000;
        stroke-width: 0px;
      }
    </style>
  </defs>
  <g id="Layer_1-2" data-name="Layer 1">
    <g id="surface1">
      <path class="cls-1" d="M1869.0152,420.35916c0,6.95032-.15531,13.90064-.15531,20.81214v443.15094h-167.04068V127.009c2.01909,0,4.03818-.23297,6.05726-.23297h133.88105c3.76638-.31063,7.41626,1.39783,9.6295,4.4653,117.41772,146.34503,234.87427,292.6124,352.4473,438.87978,1.16486,1.43666,2.40737,2.79566,4.77592,5.47483V127.16432h167.04068v757.58503h-125.72704c-3.49457.2718-6.91149-1.32017-8.93058-4.19349-88.60689-110.31208-177.25261-220.58534-265.89833-330.81977-34.82926-43.33273-69.73619-86.66546-104.75959-129.92053l-1.28134-1.16486-.03883,1.70846Z"/>
      <path class="cls-1" d="M1220.88802,903.77537c-90.97544-2.64035-185.48428-40.49824-262.17078-118.62141-77.34659-78.89974-116.13638-174.57344-114.5444-285.46795,1.55314-107.4776,41.27481-199.65672,116.75763-275.489,67.9889-68.26071,150.4997-107.05048,246.44519-114.23378,123.86327-9.20237,230.52546,30.75226,317.19092,120.05808,74.55093,76.68651,111.39929,170.14697,111.24397,277.04214-.34946,217.47905-175.23352,395.66355-414.92254,396.71192ZM1467.91564,524.07038c0-81.73423-22.44294-135.55068-66.24161-179.93178-43.75984-44.3811-98.31404-67.05701-160.82811-67.56178-62.47524-.46594-117.06826,21.97699-161.29405,66.43575-51.79737,52.03034-74.62859,115.70926-66.70755,188.94002,5.08655,50.67134,27.64597,97.96459,63.75658,133.72574,51.09845,51.44791,113.06892,75.24985,185.48428,68.64898,108.68128-9.94012,207.57775-104.17716,205.83047-210.25693Z"/>
      <path class="cls-1" d="M906.18213,884.74935h-176.59252c-3.64989.5436-7.18329-1.66963-8.23167-5.24186-44.49759-107.71057-89.15049-215.38231-133.88105-322.97639-11.45444-27.45183-23.21951-54.86483-34.75161-82.39431-10.67787-25.43274-21.23925-50.82665-31.7618-76.25939-21.82168-53.07871-43.68219-106.19625-65.46504-159.31379-.73774-1.66963-1.66963-3.2616-3.06746-5.90195-47.68153,115.24332-94.97478,229.16646-142.65632,344.02149h185.5231c3.92169-.58243,7.61041,1.86377,8.65878,5.70781,20.81214,48.06982,41.77959,96.06198,62.86352,144.05415.8154,1.86377,1.51432,3.8052,2.64035,6.63969h-7.99869c-103.01231,0-206.10227-.03883-309.26989-.15531-6.05726,0-8.23167,2.21323-10.28958,7.14446-19.14251,46.51668-38.47915,92.91687-57.62166,139.35589-1.39783,3.37809-2.60152,5.43601-6.91149,5.43601-58.24292-.19414-116.52467-.19414-174.76757,0-.62126,0-1.24252,0-2.60152-.23297.46594-1.78612,1.0872-3.5334,1.74729-5.28069,59.79606-138.30751,119.59212-276.61503,179.42701-414.92254C247.10528,311.94968,312.99743,159.35324,378.85076,6.67914,380.98633,1.74791,383.35488-.03821,388.86854.00062,431.58001.27242,474.36914.27242,517.1971.00062c5.59132,0,7.84338,1.94143,9.97895,6.795,60.14552,139.51119,120.40752,279.0224,180.74718,418.45594,65.15441,150.7715,130.34765,301.62065,195.50206,452.50863.73774,2.05792,1.59197,4.15466,2.75683,6.98915Z"/>
      <path class="cls-1" d="M1869.0152,420.35916l.15531-1.70846,1.28134,1.16486-1.43666.5436Z"/>
    </g>
  </g>
</svg>