<?xml version="1.0" encoding="UTF-8"?><svg id="Layer_2" xmlns="http://www.w3.org/2000/svg" viewBox="0 0 223.31 41.38"><g id="Layer_1-2"><g id="Layer_2-2"><g id="Layer_1-2"><g id="Layer_1-2-2"><g id="logo"><path d="m86.6,29.22c-2,0-2.81-.9-2.81-2.34,0-1.66.93-2.52,3.36-2.52h3.2v1c.17,1.95-1.27,3.68-3.22,3.85,0,0-.01,0-.02,0-.17.02-.34.02-.51.01Zm-5.55-2.07c0,2,1.14,4.08,4.72,4.08,1.75.09,3.44-.69,4.51-2.08l.35,1.76h2.24v-9.45c0-4-2.43-4.76-5.3-4.76-2.18,0-5,.63-5.73,3.89h2.75c.38-1.21,1.18-1.89,2.94-1.89,1.44,0,2.82.52,2.82,2.81v1h-3c-3.65,0-6.26,1.21-6.26,4.67l-.04-.03Zm-7.33,3.76h2.59v-8.69c-.15-1.46.91-2.77,2.37-2.92.16-.01.32-.01.48,0,.56-.01,1.11.03,1.66.12v-2.53c-.44-.14-.91-.21-1.37-.19-1.35,0-2.57.78-3.14,2l-.34-1.66h-2.25v13.87Zm91.82,0h2.59v-8.69c-.15-1.45.9-2.76,2.35-2.92.16-.01.31-.01.47,0,.56-.01,1.11.03,1.66.12v-2.53c-.44-.14-.9-.21-1.36-.19-1.34,0-2.56.78-3.12,2l-.32-1.7h-2.27v13.91Zm-48.68-11.6v-2.27h-2.83v-4l-2.66.41v3.54h-2v2.27h2v8.82c0,2,.74,3.17,3.65,3.17.73,0,1.46-.1,2.17-.29v-2c-.52.14-1.06.2-1.6.19-1.22,0-1.56-.58-1.56-1.85v-8h2.83Zm78.1,0v-2.27h-2.84v-4l-2.66.41v3.54h-2v2.27h2v8.82c0,2,.74,3.17,3.65,3.17.74,0,1.47-.1,2.18-.29v-2c-.52.14-1.06.2-1.6.19-1.22,0-1.57-.58-1.57-1.85v-8h2.84Zm-38.58,9.81c-2.49,0-4.07-1.73-4.07-5.17s1.66-5.15,4.12-5.15,4,1.83,4,5.31-1.54,5-4,5h-.05Zm46.32,0c-2.49,0-4.08-1.73-4.08-5.17s1.66-5.15,4.11-5.15,4,1.83,4,5.31-1.54,5-4,5h-.03Zm-28.28,1.79h2.55v-8c0-2.29,1-3.9,3.39-3.9,2.23,0,2.93,1,2.93,3.29v8.6h2.59v-9.32c0-3.2-1.34-4.86-4.37-4.86-1.77-.11-3.47.67-4.54,2.08l-.32-1.76h-2.19v13.87h-.04Zm-78.2,0h2.53v-8c0-2.29,1-3.9,3.39-3.9,2.24,0,2.94,1,2.94,3.29v8.6h2.59v-9.32c0-3.2-1.34-4.86-4.38-4.86-1.77-.11-3.47.67-4.54,2.08l-.32-1.76h-2.21v13.87Zm115.66,0h2.51v-8c0-2.29,1-3.9,3.39-3.9,2.24,0,2.94,1,2.94,3.29v8.6h2.59v-9.32c0-3.2-1.34-4.86-4.38-4.86-1.77-.11-3.47.67-4.54,2.08l-.32-1.76h-2.19v13.87h0Zm-77.32-18.63v-2.23h-14.76v2.23h6v18.63h2.78V12.28h5.98Zm1.41,18.63h2.54v-8c0-2.29,1-3.9,3.38-3.9,2.23,0,2.94,1,2.94,3.29v8.6h2.59v-9.32c0-3.2-1.34-4.86-4.37-4.86-1.77-.11-3.47.67-4.54,2.08v-8.75h-2.54v20.86Zm-72.63-8.28h4.92v4.64c-1.62,1.24-3.62,1.89-5.66,1.83-4.63,0-7.28-3-7.28-8.28,0-5.59,2.84-8.69,7.22-8.69,2.42-.03,4.75.94,6.43,2.69l1.64-1.86c-2.05-2.08-4.86-3.22-7.77-3.16-6.55,0-10.42,4.56-10.42,10.95s3.23,10.62,10.23,10.62c3.1.06,6.1-1.13,8.32-3.29v-7.58h-7.63v2.13Zm93.24-5.93c-4.59,0-7,3.15-7,7.35s2.4,7.18,6.67,7.18,6.93-2.81,6.93-7.26-2.45-7.27-6.6-7.27Zm46.31,0c-4.6,0-7,3.15-7,7.35s2.41,7.18,6.69,7.18,6.94-2.81,6.94-7.26-2.48-7.27-6.63-7.27Z"/></g></g><path d="m38.76,10.51h0l-.25-.43C32.7.47,20.32-2.83,10.51,2.63h0l-.43.24C.46,8.68-2.83,21.06,2.64,30.87h0l.24.43c3.78,6.27,10.57,10.1,17.89,10.08,3.55,0,7.03-.93,10.11-2.68l.43-.24c9.59-5.8,12.88-18.14,7.45-27.95Zm-1.62.35l.21.38h0c.87,1.84,1.09,3.93.62,5.91h0c0,.17-.08.35-.13.53s0,.19-.07.29,0,.16-.07.24c-.58,1.94-1.56,3.73-2.86,5.28l-.1.12-.23.26-.16.17-.23.25-.22.21-.24.23-.26.24-.26.22-.3.26-.27.21-.36.26-.27.19-.41.27-.28.16c-.15.09-.3.19-.46.27l-.25.13c-.66.34-1.36.62-2.07.83l-.18.06-.62.14-.36.08c-.19,0-.4.06-.6.09l-.44.06h-2.3l-.57-.06h-.22c2.66-1.5,4.7-3.88,5.79-6.73h0c.06-.17.12-.34.17-.51,1.89-5.64.06-11.86-4.59-15.57-2.07-1.76-4.54-2.97-7.2-3.52,7.83-1.34,15.68,2.25,19.79,9.05Zm-23.24,9.64c1.12-2.85,3.29-5.16,6.07-6.44.27-.13.56-.19.86-.18,2.85,1.14,5.15,3.33,6.43,6.11.13.27.19.56.18.86-1.14,2.85-3.33,5.15-6.11,6.43-.26.13-.56.19-.85.17-2.85-1.13-5.16-3.31-6.44-6.1-.12-.27-.17-.56-.14-.85Zm-3-16.28l.38-.22c.25-.13.5-.24.77-.33l.18-.07c.21-.07.43-.13.65-.18h.21c.25-.05.5-.09.75-.12h2.26c.3,0,.6.07.9.13h.12c.34.07.69.16,1,.26l.16.05c.29.09.58.18.87.29l.24.09c.31.13.63.26.94.41h.07c.33.16.66.34,1,.53l.23.14c.25.15.5.31.74.48l.25.17c.31.23.62.46.91.7l.06.05.32.28.15.15.27.25.19.19.26.27.21.23.26.3.21.26c.09.1.18.21.26.33.08.09.15.19.22.29l.25.36.21.32.25.41c.06.11.12.22.19.33l.24.49.16.31c.12.28.24.56.35.85,0,.08.05.17.08.25s.15.44.21.67l.09.4c.05.19.1.39.13.59,0,.14.05.3.07.45.03.2.06.39.07.59v2.28c-.01.18-.03.35-.06.53v.23c-1.5-2.66-3.87-4.71-6.71-5.82h0c-.16-.07-.33-.12-.5-.18h0c-3.72-1.25-7.79-.88-11.23,1l-.14.07-.48.3-.43.26c-.1.07-.18.14-.28.2s-.4.28-.6.44l-.16.13c-.82.66-1.57,1.39-2.25,2.2-1.11,1.32-2.01,2.81-2.67,4.41-.37.9-.65,1.83-.84,2.79-1.36-7.82,2.22-15.67,9-19.78h.01Zm-6.67,26.26l-.26-.38c0-.06,0-.13-.08-.19s-.15-.29-.21-.45v-.13c-.07-.18-.13-.36-.18-.55v-.11c0-.19-.1-.39-.14-.6v-.13c-.04-.2-.07-.4-.08-.61h0c-.1-1.35.04-2.7.41-4l.06-.17c.06-.22.12-.43.2-.65l.15-.4c0-.14.1-.28.16-.42s.15-.34.23-.51l.14-.3c.12-.24.25-.48.38-.72,0-.02,0-.05,0-.07.45-.8.97-1.56,1.56-2.27l.33-.37.07-.09.31-.33.11-.11.38-.36.09-.09c.34-.31.72-.62,1.14-.94l.12-.08c.17-.13.34-.25.53-.37l.17-.11c.19-.12.38-.24.58-.35l.15-.09c.53-.29,1.08-.53,1.64-.74l.21-.08c.22-.07.45-.15.68-.21l.28-.08.73-.16h.25c.69-.12,1.4-.17,2.1-.16h.32l.81.06h.38l.28.05c-2.66,1.49-4.73,3.86-5.83,6.71h0l-.18.5c-1.89,5.64-.06,11.86,4.59,15.58h0c.32.27.66.52,1,.77l.31.21c.26.18.51.34.77.5l.32.2c.35.2.7.39,1.06.56h0c.37.17.74.33,1.11.48l.31.11c.29.11.58.2.86.29l.29.09c.39.11.77.2,1.15.28-7.82,1.35-15.67-2.22-19.79-9h.03Zm26.27,6.64l-.39.22c-3.08,1.62-7.81.77-11.55-2-.08-.07-.16-.14-.25-.2l-.48-.38c-.12-.1-.25-.21-.38-.34l-.1-.09-.33-.31-.15-.15-.3-.31-.17-.19-.3-.34-.13-.2-.3-.38-.18-.24-.3-.44-.22-.24c-.11-.17-.21-.34-.31-.51l-.13-.23c-.12-.22-.23-.43-.33-.66l-.08-.15c-.26-.59-.49-1.2-.66-1.82,0-.07,0-.15-.05-.22-.06-.25-.12-.5-.17-.77v-.32l-.09-.73v-1.53c0-.14,0-.5.05-.75s0-.3.06-.46,0-.17,0-.26c1.49,2.66,3.86,4.72,6.71,5.82h0l.51.17c.37.12.75.23,1.12.31.13.04.26.06.39.08l.72.15.48.06c.21,0,.42.06.63.07s.34,0,.52,0h.93l1.11-.06h.35c.42-.04.83-.1,1.24-.19l.28-.07c.36-.09.72-.19,1.07-.31l.34-.11c.45-.15.88-.32,1.31-.52l.19-.09c.35-.18.7-.37,1.05-.58l.3-.19c.39-.25.78-.52,1.16-.81l.07-.06c.35-.28.69-.58,1-.9l.25-.25c.35-.35.7-.71,1-1.1,1.76-2.06,2.97-4.54,3.52-7.2,1.35,7.82-2.22,15.66-9,19.78h-.01Z"/></g></g></g></svg>