<?xml version="1.0" encoding="UTF-8"?>
<svg id="Layer_1" data-name="Layer 1" xmlns="http://www.w3.org/2000/svg" viewBox="0 0 212.6 74.74">
  <defs>
    <style>
      .cls-1 {
        fill: #be830e;
      }
    </style>
  </defs>
  <g>
    <path d="M89.3,20.12L96.35,.62h2.82l7.06,19.51h-2.55l-1.92-5.34h-7.97l-1.96,5.34h-2.54Zm5.13-7.64h6.68l-3.32-9.4-3.36,9.4Z"/>
    <path d="M113.5,20.39c-.73,0-1.41-.11-2.06-.32s-1.21-.5-1.71-.9c-.49-.4-.88-.89-1.17-1.48-.28-.59-.43-1.27-.43-2.06V6.18h2.5V15.39c0,.91,.28,1.65,.84,2.21,.56,.57,1.41,.85,2.54,.85,1.02,0,1.85-.27,2.47-.8s.94-1.33,.94-2.39V6.18h2.48v13.95h-1.98l-.26-2.67c-.17,.7-.46,1.27-.87,1.7s-.9,.75-1.47,.95c-.57,.2-1.18,.3-1.84,.29Z"/>
    <path d="M128.5,20.39c-.97,0-1.87-.15-2.7-.45-.83-.3-1.52-.77-2.07-1.42-.55-.64-.9-1.46-1.04-2.46h2.27c.13,.55,.35,1,.68,1.37,.33,.36,.74,.64,1.23,.82,.49,.18,1.03,.28,1.62,.28,.94,0,1.69-.18,2.27-.53,.58-.35,.86-.89,.86-1.62,0-.51-.15-.92-.45-1.23s-.77-.54-1.4-.68l-2.89-.71c-1.12-.27-2.02-.69-2.7-1.27-.67-.58-1.01-1.38-1.01-2.41,0-.82,.18-1.54,.58-2.16,.4-.62,.99-1.11,1.78-1.47,.79-.36,1.78-.54,2.95-.54,1.51,0,2.73,.34,3.66,1.02,.93,.68,1.41,1.68,1.45,2.99h-2.2c-.09-.66-.39-1.19-.9-1.58s-1.19-.59-2.04-.59-1.61,.18-2.17,.53c-.56,.36-.84,.91-.84,1.65,0,.49,.2,.88,.59,1.17,.4,.28,.98,.52,1.75,.71l2.79,.7c.65,.17,1.18,.4,1.6,.67,.42,.28,.75,.59,1,.93,.25,.34,.42,.7,.53,1.07,.1,.37,.16,.73,.16,1.07,0,.85-.21,1.59-.64,2.21-.43,.62-1.04,1.09-1.83,1.43-.8,.34-1.76,.51-2.89,.51Z"/>
    <path d="M143.86,8h-3.14v8.67c0,.49,.05,.86,.16,1.09,.1,.23,.28,.38,.53,.44,.25,.06,.59,.09,1.02,.09h1.52v1.67c-.17,.06-.43,.12-.77,.16-.35,.04-.78,.07-1.29,.07-.96,0-1.71-.13-2.24-.39-.53-.26-.9-.65-1.11-1.16-.21-.51-.32-1.14-.32-1.89V8h-2.27v-1.82h2.33l.61-4.06h1.83V6.16h3.14v1.83Z"/>
    <path d="M147.18,20.12V6.18h2.37v2.68c.23-.67,.56-1.22,.98-1.65,.42-.44,.91-.76,1.45-.98,.54-.22,1.11-.32,1.69-.32,.21,0,.41,.01,.61,.04,.2,.03,.35,.07,.46,.13v2.41c-.13-.06-.31-.11-.52-.13s-.39-.03-.53-.03c-.56-.04-1.08,0-1.57,.1-.49,.1-.91,.28-1.28,.53s-.66,.58-.87,.99c-.21,.41-.32,.91-.32,1.49v8.67h-2.48Z"/>
    <path d="M160.87,20.39c-.9,0-1.7-.16-2.39-.48-.69-.32-1.23-.78-1.63-1.38-.39-.6-.59-1.33-.59-2.18,0-1.55,.54-2.7,1.62-3.45s2.81-1.16,5.19-1.21l2.5-.07v-1.09c0-.85-.26-1.53-.77-2.03-.51-.5-1.31-.75-2.39-.75-.8,0-1.5,.2-2.11,.57-.61,.37-1,.97-1.18,1.81h-2.2c.05-.91,.31-1.67,.77-2.3,.46-.63,1.1-1.1,1.92-1.42s1.8-.49,2.92-.49c1.21,0,2.22,.17,3.03,.51s1.41,.85,1.81,1.51c.4,.67,.6,1.48,.6,2.45v9.74h-2.13l-.17-2.62c-.54,1.09-1.23,1.84-2.06,2.26-.83,.42-1.75,.63-2.75,.63Zm.76-1.79c.47,0,.93-.09,1.4-.26,.46-.17,.89-.4,1.28-.69,.39-.29,.69-.62,.92-.98s.35-.74,.36-1.13v-2.39l-2.08,.04c-1.06,.02-1.95,.13-2.66,.32-.71,.2-1.25,.51-1.61,.93-.36,.42-.53,.98-.53,1.66,0,.78,.27,1.39,.82,1.83,.54,.44,1.25,.66,2.11,.66Z"/>
    <path d="M175.28,20.3c-.76,0-1.36-.1-1.83-.31-.46-.21-.82-.49-1.07-.84-.25-.35-.41-.75-.5-1.21-.09-.45-.13-.92-.13-1.41V.08h2.46V16.29c0,.7,.14,1.23,.41,1.58,.27,.35,.66,.54,1.15,.58h.76v1.63c-.21,.06-.42,.11-.65,.16-.22,.04-.43,.06-.61,.06Z"/>
    <path d="M182.13,.63V3.22h-2.55V.63h2.55Zm-.05,5.54v13.95h-2.41V6.18h2.41Z"/>
    <path d="M190.05,20.39c-.9,0-1.7-.16-2.39-.48-.69-.32-1.23-.78-1.63-1.38-.39-.6-.59-1.33-.59-2.18,0-1.55,.54-2.7,1.62-3.45s2.81-1.16,5.19-1.21l2.5-.07v-1.09c0-.85-.26-1.53-.77-2.03-.51-.5-1.31-.75-2.39-.75-.8,0-1.5,.2-2.11,.57-.61,.37-1,.97-1.18,1.81h-2.2c.05-.91,.31-1.67,.77-2.3,.46-.63,1.1-1.1,1.92-1.42s1.8-.49,2.92-.49c1.21,0,2.22,.17,3.03,.51s1.41,.85,1.81,1.51c.4,.67,.6,1.48,.6,2.45v9.74h-2.13l-.17-2.62c-.54,1.09-1.23,1.84-2.06,2.26-.83,.42-1.75,.63-2.75,.63Zm.76-1.79c.47,0,.93-.09,1.4-.26,.46-.17,.89-.4,1.28-.69,.39-.29,.69-.62,.92-.98s.35-.74,.36-1.13v-2.39l-2.08,.04c-1.06,.02-1.95,.13-2.66,.32-.71,.2-1.25,.51-1.61,.93-.36,.42-.53,.98-.53,1.66,0,.78,.27,1.39,.82,1.83,.54,.44,1.25,.66,2.11,.66Z"/>
    <path d="M200.82,20.12V6.18h2.42v2.02c.22-.39,.54-.75,.94-1.09,.4-.34,.89-.62,1.46-.82,.57-.21,1.23-.31,1.98-.31,.88,0,1.69,.18,2.43,.53,.74,.35,1.34,.9,1.78,1.64,.45,.74,.67,1.7,.67,2.87v9.12h-2.5V11.25c0-1.09-.29-1.9-.86-2.42-.57-.53-1.31-.79-2.22-.79-.63,0-1.22,.1-1.77,.3-.55,.2-.99,.51-1.34,.92-.34,.41-.51,.92-.51,1.54v9.32h-2.48Z"/>
    <path d="M102.37,25.7h2.5v19.51h-2.23l-10.47-15.38v15.38h-2.5V25.7h2.39l10.31,15.16v-15.16Z"/>
    <path d="M113,45.48c-.9,0-1.7-.16-2.39-.48-.69-.32-1.23-.78-1.63-1.38-.39-.6-.59-1.33-.59-2.18,0-1.55,.54-2.7,1.62-3.45s2.81-1.16,5.19-1.21l2.5-.07v-1.09c0-.85-.26-1.53-.77-2.03-.51-.5-1.31-.75-2.39-.75-.8,0-1.5,.2-2.11,.57-.61,.37-1,.97-1.18,1.81h-2.2c.05-.91,.31-1.67,.77-2.3,.46-.63,1.1-1.1,1.92-1.42,.82-.32,1.8-.49,2.92-.49,1.21,0,2.22,.17,3.03,.51,.81,.34,1.41,.85,1.81,1.51,.4,.67,.6,1.48,.6,2.45v9.74h-2.13l-.17-2.62c-.54,1.09-1.23,1.84-2.06,2.26-.83,.42-1.75,.63-2.75,.63Zm.76-1.79c.47,0,.93-.09,1.4-.26,.46-.17,.89-.4,1.27-.69,.39-.29,.69-.62,.92-.99,.23-.36,.35-.74,.36-1.13v-2.39l-2.08,.04c-1.06,.02-1.95,.13-2.66,.32-.72,.2-1.25,.51-1.61,.93-.36,.42-.53,.98-.53,1.66,0,.78,.27,1.39,.82,1.83,.54,.44,1.25,.66,2.11,.66Z"/>
    <path d="M130.27,33.08h-3.14v8.67c0,.49,.05,.86,.16,1.09,.1,.23,.28,.38,.53,.44,.25,.06,.59,.09,1.02,.09h1.52v1.67c-.17,.06-.43,.12-.77,.16-.35,.05-.78,.07-1.29,.07-.96,0-1.71-.13-2.24-.39-.53-.26-.9-.65-1.11-1.16-.21-.51-.32-1.14-.32-1.89v-8.76h-2.27v-1.82h2.33l.61-4.06h1.83v4.05h3.14v1.83Z"/>
    <path d="M136.33,25.71v2.59h-2.55v-2.59h2.55Zm-.05,5.54v13.95h-2.41v-13.95h2.41Z"/>
    <path d="M145.94,45.48c-1.29,0-2.41-.28-3.37-.83s-1.71-1.36-2.24-2.43c-.53-1.07-.8-2.38-.8-3.93,0-1.46,.25-2.73,.74-3.83,.49-1.1,1.22-1.95,2.18-2.56s2.12-.91,3.49-.91c1.29,0,2.4,.28,3.35,.84s1.68,1.39,2.21,2.48c.52,1.09,.78,2.41,.78,3.98,0,1.42-.24,2.67-.72,3.75s-1.19,1.92-2.13,2.53c-.94,.61-2.1,.91-3.49,.91Zm0-1.97c.84,0,1.54-.21,2.12-.63,.58-.42,1.01-1.03,1.31-1.82,.3-.79,.45-1.73,.45-2.82,0-1-.13-1.9-.39-2.69-.26-.8-.68-1.43-1.25-1.9-.57-.47-1.32-.7-2.23-.7-.85,0-1.56,.21-2.14,.63-.58,.42-1.03,1.02-1.33,1.81s-.45,1.74-.45,2.85c0,.98,.13,1.87,.4,2.67,.27,.8,.69,1.43,1.27,1.9s1.33,.7,2.25,.7Z"/>
    <path d="M155.29,45.21v-13.95h2.42v2.02c.22-.39,.54-.75,.94-1.09,.4-.34,.89-.62,1.46-.82,.57-.21,1.23-.31,1.98-.31,.88,0,1.69,.18,2.43,.53,.74,.35,1.34,.9,1.78,1.64,.45,.74,.67,1.7,.67,2.87v9.12h-2.5v-8.88c0-1.09-.29-1.9-.86-2.42-.57-.53-1.31-.79-2.22-.79-.63,0-1.22,.1-1.77,.3-.55,.2-.99,.51-1.34,.92-.34,.41-.51,.92-.51,1.54v9.32h-2.48Z"/>
    <path d="M174.4,45.48c-.9,0-1.7-.16-2.39-.48-.69-.32-1.23-.78-1.63-1.38-.39-.6-.59-1.33-.59-2.18,0-1.55,.54-2.7,1.62-3.45s2.81-1.16,5.19-1.21l2.5-.07v-1.09c0-.85-.26-1.53-.77-2.03-.51-.5-1.31-.75-2.39-.75-.8,0-1.5,.2-2.11,.57-.61,.37-1,.97-1.18,1.81h-2.2c.05-.91,.31-1.67,.77-2.3,.46-.63,1.1-1.1,1.92-1.42s1.8-.49,2.92-.49c1.21,0,2.22,.17,3.03,.51s1.41,.85,1.81,1.51c.4,.67,.6,1.48,.6,2.45v9.74h-2.13l-.17-2.62c-.54,1.09-1.23,1.84-2.06,2.26-.83,.42-1.75,.63-2.75,.63Zm.76-1.79c.47,0,.93-.09,1.4-.26,.46-.17,.89-.4,1.28-.69,.39-.29,.69-.62,.92-.99,.23-.36,.35-.74,.36-1.13v-2.39l-2.08,.04c-1.06,.02-1.95,.13-2.66,.32-.71,.2-1.25,.51-1.61,.93-.36,.42-.53,.98-.53,1.66,0,.78,.27,1.39,.82,1.83,.54,.44,1.25,.66,2.11,.66Z"/>
    <path d="M188.81,45.38c-.76,0-1.36-.1-1.83-.31-.46-.21-.82-.49-1.07-.84-.25-.35-.41-.75-.5-1.21-.09-.45-.13-.92-.13-1.41V25.16h2.46v16.21c0,.7,.14,1.23,.41,1.58s.66,.54,1.15,.58h.76v1.63c-.21,.06-.42,.11-.65,.16-.22,.04-.43,.06-.61,.06Z"/>
    <path d="M103.93,63.54c0,1.5-.25,2.77-.74,3.82-.49,1.04-1.27,1.84-2.31,2.38-1.05,.54-2.41,.82-4.08,.82s-3.06-.28-4.11-.84c-1.05-.56-1.81-1.38-2.29-2.46s-.72-2.41-.72-3.98v-12.5h2.59v12.88c0,1.57,.39,2.75,1.17,3.53,.78,.78,1.9,1.17,3.36,1.17,.98,0,1.81-.17,2.5-.51,.69-.34,1.21-.86,1.58-1.56,.36-.7,.55-1.58,.55-2.64v-12.88h2.51v12.76Z"/>
    <path d="M107.58,70.29v-13.95h2.41v2.02c.23-.39,.54-.75,.94-1.09,.4-.34,.89-.62,1.46-.82,.57-.21,1.23-.31,1.98-.31,.88,0,1.69,.17,2.43,.53,.74,.35,1.34,.9,1.78,1.64,.44,.74,.67,1.7,.67,2.87v9.12h-2.5v-8.88c0-1.09-.29-1.9-.86-2.42-.57-.53-1.31-.79-2.22-.79-.63,0-1.22,.1-1.77,.3-.55,.2-.99,.51-1.33,.92-.34,.41-.51,.92-.51,1.54v9.32h-2.48Z"/>
    <path d="M125.54,50.79v2.59h-2.55v-2.59h2.55Zm-.05,5.54v13.95h-2.41v-13.95h2.41Z"/>
    <path d="M140.5,56.34l-5.03,13.95h-2.27l-5.05-13.95h2.35l3.71,10.82h.23l3.72-10.82h2.33Z"/>
    <path d="M144.18,63.89c0,.88,.15,1.68,.44,2.39,.29,.72,.74,1.28,1.34,1.71,.6,.42,1.35,.63,2.25,.63s1.66-.21,2.3-.62c.64-.41,1.05-1.01,1.23-1.79h2.36c-.17,.94-.55,1.74-1.13,2.39s-1.29,1.14-2.12,1.46c-.83,.33-1.69,.49-2.59,.49-1.3,0-2.45-.28-3.44-.85-.99-.57-1.76-1.38-2.32-2.44-.56-1.06-.84-2.33-.84-3.82s.25-2.75,.76-3.86c.5-1.11,1.23-1.97,2.19-2.59,.96-.62,2.11-.93,3.46-.93s2.42,.28,3.33,.85c.91,.57,1.6,1.36,2.07,2.39,.47,1.03,.71,2.25,.71,3.66v.92h-9.99Zm.01-1.69h7.58c0-.8-.13-1.52-.4-2.17-.27-.64-.68-1.15-1.23-1.52-.55-.37-1.25-.56-2.08-.56s-1.59,.21-2.17,.63-1,.95-1.28,1.61c-.28,.65-.42,1.32-.41,2.02Z"/>
    <path d="M157.32,70.29v-13.95h2.37v2.68c.23-.66,.56-1.22,.98-1.65,.42-.44,.91-.76,1.45-.98,.54-.22,1.11-.32,1.69-.32,.21,0,.41,.01,.61,.04,.2,.03,.35,.07,.46,.14v2.41c-.13-.06-.31-.11-.52-.13-.21-.02-.39-.03-.53-.03-.56-.04-1.08,0-1.57,.1-.49,.1-.91,.28-1.28,.53-.37,.25-.66,.58-.87,.99-.21,.41-.32,.91-.32,1.49v8.67h-2.48Z"/>
    <path d="M172.36,70.56c-.97,0-1.87-.15-2.7-.45-.83-.3-1.52-.77-2.07-1.42-.55-.64-.9-1.46-1.04-2.46h2.27c.13,.55,.35,1.01,.68,1.37,.33,.36,.74,.64,1.23,.82,.49,.18,1.03,.28,1.62,.28,.94,0,1.69-.17,2.27-.53,.58-.35,.86-.89,.86-1.62,0-.51-.15-.92-.45-1.23s-.77-.54-1.4-.68l-2.89-.72c-1.12-.27-2.02-.69-2.7-1.27s-1.01-1.38-1.01-2.41c0-.82,.18-1.54,.58-2.16,.4-.62,.99-1.11,1.78-1.47,.79-.36,1.78-.54,2.95-.54,1.51,0,2.73,.34,3.66,1.02,.93,.68,1.41,1.68,1.45,2.99h-2.2c-.09-.66-.39-1.19-.9-1.58s-1.19-.59-2.04-.59-1.61,.18-2.17,.53c-.56,.35-.84,.91-.84,1.65,0,.5,.2,.88,.59,1.17,.4,.28,.98,.52,1.75,.71l2.79,.7c.65,.17,1.18,.4,1.6,.68,.42,.28,.75,.59,1,.93,.25,.34,.42,.7,.53,1.07,.1,.37,.16,.73,.16,1.07,0,.85-.21,1.59-.64,2.21-.43,.62-1.04,1.09-1.83,1.43-.8,.34-1.76,.51-2.89,.51Z"/>
    <path d="M183.69,50.79v2.59h-2.55v-2.59h2.55Zm-.05,5.54v13.95h-2.41v-13.95h2.41Z"/>
    <path d="M194.76,58.16h-3.14v8.67c0,.49,.05,.86,.16,1.09,.1,.23,.28,.38,.53,.44,.25,.06,.59,.09,1.02,.09h1.52v1.67c-.17,.06-.43,.12-.77,.16-.35,.05-.78,.07-1.29,.07-.96,0-1.71-.13-2.24-.39-.53-.26-.9-.65-1.11-1.16-.21-.51-.32-1.14-.32-1.89v-8.76h-2.27v-1.82h2.33l.61-4.06h1.83v4.05h3.14v1.83Z"/>
    <path d="M199.54,74.74c-.82,0-1.53-.12-2.14-.35v-1.62l1.42,.03c.52,.02,.95-.02,1.29-.11,.34-.09,.62-.21,.82-.36,.21-.15,.37-.32,.48-.51,.11-.19,.2-.37,.28-.54l.49-1.32-5.45-13.61h2.52l4.11,10.76,4.09-10.76h2.44l-5.88,15c-.36,.88-.76,1.57-1.21,2.06s-.94,.84-1.48,1.04c-.54,.2-1.14,.3-1.77,.3Z"/>
  </g>
  <g>
    <path class="cls-1" d="M58.05,2.09c.12,2.63,.51,11.71,.51,22.83,0,13.54-.89,20.76-3.27,26.64-1.15,2.84-2.62,4.99-4.74,6.98-1.91,1.78-4.44,3.53-8.72,6.03-3.28,1.91-5.9,3.2-8,3.93-1.9,.66-3.04,.75-3.81,.75s-1.91-.09-3.81-.75c-2.11-.74-4.72-2.02-8-3.93-4.29-2.5-6.81-4.24-8.72-6.03-2.12-1.98-3.59-4.14-4.74-6.98-2.39-5.88-3.27-13.1-3.27-26.64C1.46,13.81,1.85,4.73,1.97,2.09H58.05M1.32,.73c-.16,0-.32,.04-.45,.15-.13,.11-.21,.27-.21,.44,0,.1-.55,10.39-.55,23.59s.91,21.09,3.37,27.15c2.49,6.15,6.35,9.18,14.03,13.66,7.36,4.29,10.44,4.86,12.49,4.86s5.13-.58,12.49-4.86c7.69-4.48,11.54-7.51,14.03-13.66,2.46-6.06,3.37-13.41,3.37-27.15s-.54-23.49-.55-23.59c0-.17-.09-.33-.22-.44-.12-.11-.29-.15-.45-.15,0,0-57.21,0-57.37,0Z"/>
    <g>
      <polygon class="cls-1" points="47.29 17.36 46.65 15.55 46.01 17.33 44.1 17.4 45.62 18.58 45.07 20.4 46.64 19.32 48.22 20.4 47.68 18.56 49.2 17.4 47.29 17.36"/>
      <polygon class="cls-1" points="45.06 27.6 46.51 28.94 46.37 26.97 48.32 26.67 46.69 25.56 47.67 23.85 45.79 24.43 45.06 22.59 44.34 24.43 42.45 23.85 43.43 25.56 41.81 26.67 43.76 26.97 43.61 28.94 45.06 27.6"/>
      <polygon class="cls-1" points="52.93 16.78 54.38 18.12 54.23 16.15 56.18 15.85 54.56 14.74 55.54 13.03 53.65 13.61 52.93 11.77 52.2 13.61 50.32 13.03 51.3 14.74 49.67 15.85 51.62 16.15 51.48 18.12 52.93 16.78"/>
      <polygon class="cls-1" points="45.89 9.4 47.34 10.74 47.19 8.77 49.14 8.48 47.52 7.36 48.5 5.65 46.61 6.23 45.89 4.39 45.17 6.23 43.28 5.65 44.26 7.36 42.63 8.48 44.58 8.77 44.44 10.74 45.89 9.4"/>
      <polygon class="cls-1" points="37.58 15.8 39.03 17.13 38.88 15.17 40.83 14.87 39.2 13.76 40.19 12.05 38.3 12.62 37.58 10.79 36.85 12.62 34.97 12.05 35.95 13.76 34.32 14.87 36.27 15.17 36.13 17.13 37.58 15.8"/>
    </g>
    <g>
      <path class="cls-1" d="M45.13,32.28c-7.98-3.81-13.34-6.52-15.27-6.52s-6.98,2.71-14.96,6.52c-7.98,3.82-10.7,4.63-10.7,6.3s1.96,.88,2.55,.7c.6-.18,20.95-6.76,23.11-6.76s22.82,6.59,23.42,6.76c.6,.18,2.55,.97,2.55-.7s-2.72-2.49-10.7-6.3Z"/>
      <path class="cls-1" d="M49.72,44.75c-3.46,1.16-6.21,3.69-10.04,2.97-3.36-.63-6.15-3.53-9.67-3.49-3.86,.05-6.78,3.37-10.56,3.69-3.72,.31-6.62-2.7-10.09-3.41-1.57-.32-2.95-.11-4.26,.34,.27,1.29,.57,2.48,.93,3.6,1.03-.25,2.12-.32,3.33-.07,3.47,.71,6.37,3.72,10.09,3.41,3.79-.32,6.7-3.64,10.56-3.69,3.53-.04,6.32,2.86,9.67,3.49,3.83,.72,6.58-1.81,10.04-2.97,1.55-.52,2.93-.47,4.24-.15,.36-1.12,.66-2.31,.93-3.6-1.59-.55-3.26-.77-5.17-.13Z"/>
      <path class="cls-1" d="M49.72,52.5c-3.46,1.16-6.21,3.69-10.04,2.97-3.36-.63-6.15-3.53-9.67-3.49-3.86,.05-6.78,3.37-10.56,3.69-3.72,.31-6.62-2.7-10.09-3.41-.66-.13-1.28-.18-1.88-.14,.79,1.58,1.76,2.94,2.96,4.18,.04,.04,.08,.07,.12,.09,.39,.19,2.41,1.17,3.41,1.67,1.71,.86,3.5,1.65,5.47,1.49,3.79-.32,6.7-3.64,10.56-3.69,3.53-.04,6.32,2.86,9.67,3.49,2.34,.44,4.32-.35,6.26-1.29,1.01-.49,3.17-1.56,3.57-1.76,.05-.02,.09-.05,.12-.09,1.14-1.2,2.12-2.56,2.88-4.08-.88-.06-1.81,.04-2.8,.38Z"/>
      <path class="cls-1" d="M20.49,63.25c1.54,.87,2.91,1.58,4.13,2.13,1.71-.89,3.43-1.76,5.39-1.78,1.96-.02,3.69,.86,5.42,1.76,1.23-.57,2.61-1.28,4.17-2.16-3.32-.67-6.09-3.51-9.58-3.47-3.5,.04-6.22,2.78-9.51,3.53Z"/>
      <path class="cls-1" d="M42.49,39.96c-4.09-1.25-6.88-2.06-8.79-2.6-1.82-.51-2.67-.7-3.23-.84-.17-.04-.45-.1-.54-.11-.13,.02-.3,.06-.53,.11-.47,.11-1.2,.29-2.31,.6-1.89,.52-4.91,1.4-9.71,2.89-1.54,.48-3.27,1.02-5.2,1.63,2.36,1.12,4.62,2.63,7.31,2.41,3.79-.32,6.7-3.64,10.56-3.69,3.53-.04,6.32,2.86,9.67,3.49,3.12,.59,5.52-.98,8.18-2.21-2.02-.63-3.81-1.18-5.41-1.67Z"/>
    </g>
  </g>
</svg>